<svg id="visual" viewBox="0 0 900 600" width="900" height="600" xmlns="http://www.w3.org/2000/svg" xmlns:xlink="http://www.w3.org/1999/xlink" version="1.1"><rect x="0" y="0" width="900" height="600" fill="#ffffff"></rect><path d="M673 600L682.2 585.7C691.3 571.3 709.7 542.7 725 514.2C740.3 485.7 752.7 457.3 761.3 428.8C770 400.3 775 371.7 766.3 343C757.7 314.3 735.3 285.7 722.7 257C710 228.3 707 199.7 707.7 171.2C708.3 142.7 712.7 114.3 724.7 85.8C736.7 57.3 756.3 28.7 766.2 14.3L776 0L900 0L900 14.3C900 28.7 900 57.3 900 85.8C900 114.3 900 142.7 900 171.2C900 199.7 900 228.3 900 257C900 285.7 900 314.3 900 343C900 371.7 900 400.3 900 428.8C900 457.3 900 485.7 900 514.2C900 542.7 900 571.3 900 585.7L900 600Z" fill="#d8ccec" stroke-linecap="round" stroke-linejoin="miter"></path></svg>