<svg xmlns="http://www.w3.org/2000/svg" version="1.1" xmlns:xlink="http://www.w3.org/1999/xlink" xmlns:svgjs="http://svgjs.com/svgjs" width="1440" height="560" preserveAspectRatio="none" viewBox="0 0 1440 560"><g mask="url(&quot;#SvgjsMask1015&quot;)" fill="none"><rect width="1440" height="560" x="0" y="0" fill="rgba(216, 204, 236, 1)"></rect><path d="M0,321.378C59.184,321.474,97.71,260.835,150.741,234.558C212.732,203.841,297.712,210.726,337.513,154.137C377.656,97.062,373.043,15.783,351.233,-50.5C330.83,-112.509,270.155,-148.061,223.167,-193.376C180.698,-234.333,142.654,-278.645,89.067,-303.334C29.227,-330.904,-36.714,-358.734,-100.578,-342.536C-165.06,-326.181,-202.606,-263.206,-250.632,-217.174C-304.083,-165.943,-397.89,-131.293,-398.221,-57.256C-398.564,19.626,-301.93,56.575,-252.117,115.138C-217.624,155.691,-191.634,200.36,-150.427,234.069C-104.625,271.537,-59.175,321.282,0,321.378" fill="#c9b9e5"></path><path d="M1440 975.765C1533.164 991.732 1641.142 1047.4859999999999 1717.371 991.597 1794.5819999999999 934.988 1755.5720000000001 809.1320000000001 1789.423 719.576 1820.062 638.516 1914.974 579.197 1905.8229999999999 493.025 1896.6779999999999 406.913 1807.092 355.98400000000004 1744.461 296.183 1687.562 241.85399999999998 1625.21 200.12599999999998 1557.361 160.30599999999998 1467.652 107.656 1386.537 15.19399999999996 1283.017 25.364000000000033 1178.7649999999999 35.60500000000002 1105.754 131.767 1037.65 211.361 969.889 290.554 891.517 377.11699999999996 892.868 481.334 894.193 583.518 982.422 659.4449999999999 1044.51 740.614 1093.999 805.313 1147.653 864.326 1217.6680000000001 905.9549999999999 1285.816 946.4739999999999 1361.855 962.3720000000001 1440 975.765" fill="#e7dff3"></path></g><defs><mask id="SvgjsMask1015"><rect width="1440" height="560" fill="#ffffff"></rect></mask></defs></svg>