<svg xmlns="http://www.w3.org/2000/svg" version="1.1" xmlns:xlink="http://www.w3.org/1999/xlink" xmlns:svgjs="http://svgjs.com/svgjs" width="1440" height="560" preserveAspectRatio="none" viewBox="0 0 1440 560"><g clip-path="url(&quot;#SvgjsClipPath1004&quot;)" fill="none"><rect width="1440" height="560" x="0" y="0" fill="rgba(255, 251, 239, 1)"></rect><circle r="93.335" cx="66.16" cy="-13.79" stroke="#7e57c2" stroke-opacity="0.24" stroke-width="2"></circle><circle r="93.335" cx="360.94" cy="283.99" stroke="#7e57c2" stroke-opacity="0.24" stroke-width="2"></circle><circle r="93.335" cx="776.27" cy="713.54" stroke="#7e57c2" stroke-opacity="0.24" stroke-width="2"></circle><circle r="179.485" cx="119.84" cy="26.98" stroke="#7e57c2" stroke-opacity="0.24" stroke-width="2"></circle><circle r="155.195" cx="479.62" cy="123.94" stroke="#7e57c2" stroke-opacity="0.24" stroke-width="2"></circle><circle r="157" cx="1034.45" cy="151.05" stroke="#7e57c2" stroke-opacity="0.24" stroke-width="2"></circle><circle r="65.405" cx="216.36" cy="37.19" stroke="#7e57c2" stroke-opacity="0.24" stroke-width="2"></circle><circle r="106.645" cx="1226.74" cy="5.27" stroke="#7e57c2" stroke-opacity="0.24" stroke-width="2"></circle><circle r="102.66" cx="1264.79" cy="528.02" stroke="#7e57c2" stroke-opacity="0.24" stroke-width="2"></circle><circle r="177.015" cx="564.34" cy="488.44" stroke="#7e57c2" stroke-opacity="0.24" stroke-width="2"></circle><circle r="131.025" cx="500.45" cy="543.24" stroke="#7e57c2" stroke-opacity="0.24" stroke-width="2"></circle><circle r="118.43" cx="9.82" cy="509.23" stroke="#7e57c2" stroke-opacity="0.24" stroke-width="2"></circle><circle r="127.405" cx="1134.37" cy="191.92" stroke="#7e57c2" stroke-opacity="0.24" stroke-width="2"></circle><circle r="160.285" cx="1357.85" cy="171.34" stroke="#7e57c2" stroke-opacity="0.24" stroke-width="2"></circle><circle r="129.2" cx="802.64" cy="190.4" stroke="#7e57c2" stroke-opacity="0.24" stroke-width="2"></circle><circle r="67.81" cx="1251.77" cy="63.93" stroke="#7e57c2" stroke-opacity="0.24" stroke-width="2"></circle><circle r="165.235" cx="782.2" cy="92.01" stroke="#7e57c2" stroke-opacity="0.24" stroke-width="2"></circle><circle r="135.44" cx="621.46" cy="496.44" stroke="#7e57c2" stroke-opacity="0.24" stroke-width="2"></circle><circle r="184.18" cx="357.14" cy="476.45" stroke="#7e57c2" stroke-opacity="0.24" stroke-width="2"></circle><circle r="143.56" cx="639.71" cy="264.34" stroke="#7e57c2" stroke-opacity="0.24" stroke-width="2"></circle><circle r="73.935" cx="77.46" cy="69.72" stroke="#7e57c2" stroke-opacity="0.24" stroke-width="2"></circle><circle r="151.525" cx="1083.62" cy="542.62" stroke="#7e57c2" stroke-opacity="0.24" stroke-width="2"></circle><circle r="63.395" cx="1324.66" cy="211.81" stroke="#7e57c2" stroke-opacity="0.24" stroke-width="2"></circle><circle r="62.625" cx="531.43" cy="97.35" stroke="#7e57c2" stroke-opacity="0.24" stroke-width="2"></circle><circle r="169.19" cx="1387.61" cy="408.61" stroke="#7e57c2" stroke-opacity="0.24" stroke-width="2"></circle><circle r="106.37" cx="1213.97" cy="168.74" stroke="#7e57c2" stroke-opacity="0.24" stroke-width="2"></circle><circle r="109.98" cx="1290.16" cy="415.46" stroke="#7e57c2" stroke-opacity="0.24" stroke-width="2"></circle><circle r="135.095" cx="98.35" cy="166.04" stroke="#7e57c2" stroke-opacity="0.24" stroke-width="2"></circle><circle r="149.53" cx="905.85" cy="483.22" stroke="#7e57c2" stroke-opacity="0.24" stroke-width="2"></circle><circle r="152.575" cx="530.63" cy="122.84" stroke="#7e57c2" stroke-opacity="0.24" stroke-width="2"></circle><circle r="132.265" cx="12.07" cy="312.46" stroke="#7e57c2" stroke-opacity="0.24" stroke-width="2"></circle><circle r="100.89" cx="575.46" cy="112.63" stroke="#7e57c2" stroke-opacity="0.24" stroke-width="2"></circle><circle r="75.895" cx="562.19" cy="555.27" stroke="#7e57c2" stroke-opacity="0.24" stroke-width="2"></circle><circle r="75.595" cx="939.08" cy="276.7" stroke="#7e57c2" stroke-opacity="0.24" stroke-width="2"></circle><circle r="102.705" cx="1101.29" cy="471.03" stroke="#7e57c2" stroke-opacity="0.24" stroke-width="2"></circle><circle r="181" cx="900.78" cy="329.39" stroke="#7e57c2" stroke-opacity="0.24" stroke-width="2"></circle><circle r="175.835" cx="1002.61" cy="268.23" stroke="#7e57c2" stroke-opacity="0.24" stroke-width="2"></circle><circle r="110.44" cx="665.57" cy="193.86" stroke="#7e57c2" stroke-opacity="0.24" stroke-width="2"></circle><circle r="124.155" cx="315.57" cy="380.92" stroke="#7e57c2" stroke-opacity="0.24" stroke-width="2"></circle><circle r="87.97" cx="1066.08" cy="479.07" stroke="#7e57c2" stroke-opacity="0.24" stroke-width="2"></circle></g><defs><clipPath id="SvgjsClipPath1004"><rect width="1440" height="560" x="0" y="0"></rect></clipPath></defs></svg>