<svg xmlns="http://www.w3.org/2000/svg" version="1.1" xmlns:xlink="http://www.w3.org/1999/xlink" xmlns:svgjs="http://svgjs.com/svgjs" width="1440" height="250" preserveAspectRatio="none" viewBox="0 0 1440 250"><g mask="url(&quot;#SvgjsMask1006&quot;)" fill="none"><rect width="1440" height="250" x="0" y="0" fill="rgba(242, 242, 243, 1)"></rect><path d="M47 250L297 0L600 0L350 250z" fill="url(#SvgjsLinearGradient1007)"></path><path d="M270.6 250L520.6 0L615.1 0L365.1 250z" fill="url(#SvgjsLinearGradient1007)"></path><path d="M508.20000000000005 250L758.2 0L872.2 0L622.2 250z" fill="url(#SvgjsLinearGradient1007)"></path><path d="M753.8000000000001 250L1003.8000000000001 0L1198.8000000000002 0L948.8000000000001 250z" fill="url(#SvgjsLinearGradient1007)"></path><path d="M1426 250L1176 0L834 0L1084 250z" fill="url(#SvgjsLinearGradient1008)"></path><path d="M1159.4 250L909.4000000000001 0L804.4000000000001 0L1054.4 250z" fill="url(#SvgjsLinearGradient1008)"></path><path d="M945.8 250L695.8 0L485.79999999999995 0L735.8 250z" fill="url(#SvgjsLinearGradient1008)"></path><path d="M701.1999999999999 250L451.19999999999993 0L148.19999999999993 0L398.19999999999993 250z" fill="url(#SvgjsLinearGradient1008)"></path><path d="M1232.2553425672402 250L1440 42.25534256724018L1440 250z" fill="url(#SvgjsLinearGradient1007)"></path><path d="M0 250L207.74465743275982 250L 0 42.25534256724018z" fill="url(#SvgjsLinearGradient1008)"></path></g><defs><mask id="SvgjsMask1006"><rect width="1440" height="250" fill="#ffffff"></rect></mask><linearGradient x1="0%" y1="100%" x2="100%" y2="0%" id="SvgjsLinearGradient1007"><stop stop-color="rgba(97, 15, 185, 0.2)" offset="0"></stop><stop stop-opacity="0" stop-color="rgba(97, 15, 185, 0.2)" offset="0.66"></stop></linearGradient><linearGradient x1="100%" y1="100%" x2="0%" y2="0%" id="SvgjsLinearGradient1008"><stop stop-color="rgba(97, 15, 185, 0.2)" offset="0"></stop><stop stop-opacity="0" stop-color="rgba(97, 15, 185, 0.2)" offset="0.66"></stop></linearGradient></defs></svg>